<mxfile host="65bd71144e" modified="2020-12-24T11:41:04.233Z" agent="5.0 (Windows NT 10.0; Win64; x64) AppleWebKit/537.36 (KHTML, like Gecko) Code/1.52.1 Chrome/83.0.4103.122 Electron/9.3.5 Safari/537.36" etag="p8Lk0kLKoC__SuUVyitI" version="13.10.0" type="embed">
    <diagram id="nDFaJFDF_LfYMcwK0tZt" name="Page-1">
        <mxGraphModel dx="1062" dy="790" grid="1" gridSize="10" guides="1" tooltips="1" connect="1" arrows="1" fold="1" page="1" pageScale="1" pageWidth="850" pageHeight="1100" math="0" shadow="0">
            <root>
                <mxCell id="0"/>
                <mxCell id="1" parent="0"/>
                <mxCell id="2" value="" style="rounded=0;whiteSpace=wrap;html=1;" parent="1" vertex="1">
                    <mxGeometry x="10" y="75" width="1000" height="360" as="geometry"/>
                </mxCell>
                <mxCell id="6" value="&lt;font color=&quot;#000000&quot;&gt;Start&lt;/font&gt;" style="ellipse;whiteSpace=wrap;html=1;aspect=fixed;fillColor=#d5e8d4;strokeColor=#82b366;" parent="1" vertex="1">
                    <mxGeometry x="50" y="220" width="50" height="50" as="geometry"/>
                </mxCell>
                <mxCell id="7" value="" style="curved=1;endArrow=classic;html=1;entryX=0;entryY=0.5;entryDx=0;entryDy=0;" parent="1" source="47" target="11" edge="1">
                    <mxGeometry width="50" height="50" relative="1" as="geometry">
                        <mxPoint x="100" y="244.71" as="sourcePoint"/>
                        <mxPoint x="110" y="40" as="targetPoint"/>
                        <Array as="points"/>
                    </mxGeometry>
                </mxCell>
                <mxCell id="13" value="" style="group" parent="1" vertex="1" connectable="0">
                    <mxGeometry x="150" y="210" width="149.53999999999996" height="70" as="geometry"/>
                </mxCell>
                <mxCell id="5" value="" style="group" parent="13" vertex="1" connectable="0">
                    <mxGeometry width="134.77" height="70" as="geometry"/>
                </mxCell>
                <mxCell id="12" value="" style="group" parent="5" vertex="1" connectable="0">
                    <mxGeometry width="140" height="70" as="geometry"/>
                </mxCell>
                <mxCell id="3" value="&lt;font color=&quot;#000000&quot;&gt;Instance1&lt;/font&gt;" style="rounded=0;whiteSpace=wrap;html=1;fillColor=#ffe6cc;strokeColor=#d79b00;" parent="12" vertex="1">
                    <mxGeometry x="10" width="130" height="70" as="geometry"/>
                </mxCell>
                <mxCell id="11" value="" style="ellipse;whiteSpace=wrap;html=1;aspect=fixed;fillColor=#1736FF;" parent="12" vertex="1">
                    <mxGeometry y="27.609999999999985" width="14.77" height="14.77" as="geometry"/>
                </mxCell>
                <mxCell id="4" value="" style="ellipse;whiteSpace=wrap;html=1;aspect=fixed;fillColor=#1736FF;" parent="13" vertex="1">
                    <mxGeometry x="134.76999999999998" y="27.619999999999976" width="14.77" height="14.77" as="geometry"/>
                </mxCell>
                <mxCell id="14" value="" style="group" parent="1" vertex="1" connectable="0">
                    <mxGeometry x="350" y="210" width="149.53999999999996" height="70" as="geometry"/>
                </mxCell>
                <mxCell id="15" value="" style="group" parent="14" vertex="1" connectable="0">
                    <mxGeometry width="134.77" height="70" as="geometry"/>
                </mxCell>
                <mxCell id="16" value="" style="group" parent="15" vertex="1" connectable="0">
                    <mxGeometry width="140" height="70" as="geometry"/>
                </mxCell>
                <mxCell id="17" value="&lt;font color=&quot;#000000&quot;&gt;Instance2&lt;/font&gt;" style="rounded=0;whiteSpace=wrap;html=1;fillColor=#ffe6cc;strokeColor=#d79b00;" parent="16" vertex="1">
                    <mxGeometry x="10" width="130" height="70" as="geometry"/>
                </mxCell>
                <mxCell id="18" value="" style="ellipse;whiteSpace=wrap;html=1;aspect=fixed;fillColor=#1736FF;" parent="16" vertex="1">
                    <mxGeometry y="27.609999999999985" width="14.77" height="14.77" as="geometry"/>
                </mxCell>
                <mxCell id="19" value="" style="ellipse;whiteSpace=wrap;html=1;aspect=fixed;fillColor=#1736FF;" parent="14" vertex="1">
                    <mxGeometry x="134.76999999999998" y="9.999999999999975" width="14.77" height="14.77" as="geometry"/>
                </mxCell>
                <mxCell id="20" value="" style="curved=1;endArrow=classic;html=1;entryX=0;entryY=0.5;entryDx=0;entryDy=0;exitX=1;exitY=0.5;exitDx=0;exitDy=0;" parent="1" source="4" target="18" edge="1">
                    <mxGeometry width="50" height="50" relative="1" as="geometry">
                        <mxPoint x="110" y="254.71000000000004" as="sourcePoint"/>
                        <mxPoint x="159.99999999999739" y="254.995" as="targetPoint"/>
                        <Array as="points"/>
                    </mxGeometry>
                </mxCell>
                <mxCell id="21" value="" style="ellipse;whiteSpace=wrap;html=1;aspect=fixed;fillColor=#1736FF;" parent="1" vertex="1">
                    <mxGeometry x="484.77" y="255.23" width="14.77" height="14.77" as="geometry"/>
                </mxCell>
                <mxCell id="28" value="" style="curved=1;endArrow=classic;html=1;exitX=1;exitY=0.5;exitDx=0;exitDy=0;entryX=0;entryY=0.5;entryDx=0;entryDy=0;" parent="1" source="19" target="26" edge="1">
                    <mxGeometry width="50" height="50" relative="1" as="geometry">
                        <mxPoint x="460" y="190" as="sourcePoint"/>
                        <mxPoint x="510" y="140" as="targetPoint"/>
                        <Array as="points">
                            <mxPoint x="520" y="227"/>
                            <mxPoint x="520" y="165"/>
                        </Array>
                    </mxGeometry>
                </mxCell>
                <mxCell id="30" value="" style="group" parent="1" vertex="1" connectable="0">
                    <mxGeometry x="550" y="280" width="149.53999999999996" height="70" as="geometry"/>
                </mxCell>
                <mxCell id="31" value="" style="group" parent="30" vertex="1" connectable="0">
                    <mxGeometry width="134.77" height="70" as="geometry"/>
                </mxCell>
                <mxCell id="32" value="" style="group" parent="31" vertex="1" connectable="0">
                    <mxGeometry width="140" height="70" as="geometry"/>
                </mxCell>
                <mxCell id="33" value="&lt;font color=&quot;#000000&quot;&gt;Instance4&lt;/font&gt;" style="rounded=0;whiteSpace=wrap;html=1;fillColor=#ffe6cc;strokeColor=#d79b00;" parent="32" vertex="1">
                    <mxGeometry x="10" width="130" height="70" as="geometry"/>
                </mxCell>
                <mxCell id="34" value="" style="ellipse;whiteSpace=wrap;html=1;aspect=fixed;fillColor=#1736FF;" parent="32" vertex="1">
                    <mxGeometry y="27.609999999999985" width="14.77" height="14.77" as="geometry"/>
                </mxCell>
                <mxCell id="35" value="" style="ellipse;whiteSpace=wrap;html=1;aspect=fixed;fillColor=#1736FF;" parent="30" vertex="1">
                    <mxGeometry x="134.76999999999998" y="27.619999999999976" width="14.77" height="14.77" as="geometry"/>
                </mxCell>
                <mxCell id="37" value="" style="group" parent="1" vertex="1" connectable="0">
                    <mxGeometry x="550" y="130" width="149.53999999999996" height="70" as="geometry"/>
                </mxCell>
                <mxCell id="22" value="" style="group" parent="37" vertex="1" connectable="0">
                    <mxGeometry width="149.53999999999996" height="70" as="geometry"/>
                </mxCell>
                <mxCell id="23" value="" style="group" parent="22" vertex="1" connectable="0">
                    <mxGeometry width="134.77" height="70" as="geometry"/>
                </mxCell>
                <mxCell id="24" value="" style="group" parent="23" vertex="1" connectable="0">
                    <mxGeometry width="140" height="70" as="geometry"/>
                </mxCell>
                <mxCell id="25" value="&lt;font color=&quot;#000000&quot;&gt;Instance3&lt;/font&gt;" style="rounded=0;whiteSpace=wrap;html=1;fillColor=#ffe6cc;strokeColor=#d79b00;" parent="24" vertex="1">
                    <mxGeometry x="10" width="130" height="70" as="geometry"/>
                </mxCell>
                <mxCell id="26" value="" style="ellipse;whiteSpace=wrap;html=1;aspect=fixed;fillColor=#1736FF;" parent="24" vertex="1">
                    <mxGeometry y="27.609999999999985" width="14.77" height="14.77" as="geometry"/>
                </mxCell>
                <mxCell id="36" value="" style="ellipse;whiteSpace=wrap;html=1;aspect=fixed;fillColor=#1736FF;" parent="37" vertex="1">
                    <mxGeometry x="134.76999999999998" y="27.610000000000014" width="14.77" height="14.77" as="geometry"/>
                </mxCell>
                <mxCell id="38" value="" style="curved=1;endArrow=classic;html=1;exitX=1;exitY=0.5;exitDx=0;exitDy=0;entryX=0;entryY=0.5;entryDx=0;entryDy=0;" parent="1" target="34" edge="1">
                    <mxGeometry width="50" height="50" relative="1" as="geometry">
                        <mxPoint x="499.5400000000051" y="262.395" as="sourcePoint"/>
                        <mxPoint x="550.0000000000026" y="200.00499999999994" as="targetPoint"/>
                        <Array as="points">
                            <mxPoint x="520" y="262.01"/>
                            <mxPoint x="520" y="315"/>
                        </Array>
                    </mxGeometry>
                </mxCell>
                <mxCell id="39" value="" style="group" parent="1" vertex="1" connectable="0">
                    <mxGeometry x="770" y="220" width="149.53999999999996" height="70" as="geometry"/>
                </mxCell>
                <mxCell id="40" value="" style="group" parent="39" vertex="1" connectable="0">
                    <mxGeometry width="134.77" height="70" as="geometry"/>
                </mxCell>
                <mxCell id="41" value="" style="group" parent="40" vertex="1" connectable="0">
                    <mxGeometry width="140" height="70" as="geometry"/>
                </mxCell>
                <mxCell id="42" value="&lt;font color=&quot;#000000&quot;&gt;Instance5&lt;/font&gt;" style="rounded=0;whiteSpace=wrap;html=1;fillColor=#ffe6cc;strokeColor=#d79b00;" parent="41" vertex="1">
                    <mxGeometry x="10" width="130" height="70" as="geometry"/>
                </mxCell>
                <mxCell id="43" value="" style="ellipse;whiteSpace=wrap;html=1;aspect=fixed;fillColor=#1736FF;" parent="41" vertex="1">
                    <mxGeometry y="27.609999999999985" width="14.77" height="14.77" as="geometry"/>
                </mxCell>
                <mxCell id="45" value="" style="curved=1;endArrow=classic;html=1;exitX=1;exitY=0.5;exitDx=0;exitDy=0;entryX=0;entryY=0.5;entryDx=0;entryDy=0;" parent="1" edge="1">
                    <mxGeometry width="50" height="50" relative="1" as="geometry">
                        <mxPoint x="699.540000000003" y="164.995" as="sourcePoint"/>
                        <mxPoint x="770.000000000007" y="254.995" as="targetPoint"/>
                        <Array as="points">
                            <mxPoint x="730" y="165"/>
                            <mxPoint x="730" y="255"/>
                        </Array>
                    </mxGeometry>
                </mxCell>
                <mxCell id="46" value="" style="curved=1;endArrow=classic;html=1;exitX=1;exitY=0.5;exitDx=0;exitDy=0;entryX=0;entryY=0.5;entryDx=0;entryDy=0;" parent="1" source="35" target="43" edge="1">
                    <mxGeometry width="50" height="50" relative="1" as="geometry">
                        <mxPoint x="740.0000000000031" y="300.005" as="sourcePoint"/>
                        <mxPoint x="810.4600000000071" y="390.005" as="targetPoint"/>
                        <Array as="points">
                            <mxPoint x="730" y="315"/>
                            <mxPoint x="730" y="255"/>
                        </Array>
                    </mxGeometry>
                </mxCell>
                <mxCell id="47" value="" style="ellipse;whiteSpace=wrap;html=1;aspect=fixed;fillColor=#1736FF;" parent="1" vertex="1">
                    <mxGeometry x="90" y="237.60999999999999" width="14.77" height="14.77" as="geometry"/>
                </mxCell>
            </root>
        </mxGraphModel>
    </diagram>
</mxfile>
